<svg xmlns="http://www.w3.org/2000/svg" viewBox="0 0 120 120">
  <rect width="120" height="120" rx="24" fill="#06C755"/>
  <path d="M100.4 55.5c0-18.5-18.5-33.5-41.3-33.5S17.8 37 17.8 55.5c0 16.6 14.7 30.4 34.5 33.1 1.3.3 3.2.9 3.6 2 .4 1-.3 5.2-.4 5.7 0 0-.5 3 2.6 1.6s17.3-10.2 23.6-17.4h0c4.4-4.8 6.5-9.7 6.5-15.3l12.2.3z" fill="none"/>
  <path d="M100.4 55.5c0-18.5-18.5-33.5-41.3-33.5S17.8 37 17.8 55.5c0 16.6 14.7 30.4 34.5 33.1 1.3.3 3.2.9 3.6 2 .4 1-.3 5.2-.4 5.7 0 0-.5 3 2.6 1.6s17.3-10.2 23.6-17.4c4.4-4.8 6.5-9.7 6.5-15.3" fill="#fff" fill-opacity=".0"/>
  <path d="M100.4 55.5c0-18.5-18.5-33.5-41.3-33.5S17.8 37 17.8 55.5c0 16.6 14.7 30.4 34.5 33.1 1.3.3 3.2.9 3.6 2 .4 1-.3 5.2-.4 5.7 0 0-.5 3 2.6 1.6s17.3-10.2 23.6-17.4c4.4-4.8 6.5-9.7 6.5-15.3" fill="none" stroke="#fff" stroke-width="0"/>
  <g fill="#fff">
    <path d="M51.8 46.4h-3.1c-.5 0-.9.4-.9.9v19.2c0 .5.4.9.9.9h3.1c.5 0 .9-.4.9-.9V47.3c0-.5-.4-.9-.9-.9"/>
    <path d="M70.2 46.4h-3.1c-.5 0-.9.4-.9.9v11.4l-8.8-11.9c-.1-.1-.1-.2-.2-.2h-3.5c-.5 0-.9.4-.9.9v19.2c0 .5.4.9.9.9h3.1c.5 0 .9-.4.9-.9V55.3l8.8 12c.1.1.2.2.3.3.1 0 .1.1.2.1h3.2c.5 0 .9-.4.9-.9V47.3c0-.5-.4-.9-.9-.9"/>
    <path d="M45.5 62.6h-8.6V47.3c0-.5-.4-.9-.9-.9H33c-.5 0-.9.4-.9.9v19.2c0 .2.1.5.3.6.2.2.4.3.6.3h12.5c.5 0 .9-.4.9-.9v-3.1c0-.5-.4-.9-.9-.9"/>
    <path d="M88.3 51.3c.5 0 .9-.4.9-.9v-3.1c0-.5-.4-.9-.9-.9H75.8c-.2 0-.5.1-.6.3-.2.2-.3.4-.3.6v19.2c0 .2.1.5.3.6.2.2.4.3.6.3h12.5c.5 0 .9-.4.9-.9v-3.1c0-.5-.4-.9-.9-.9h-8.6v-3.3h8.6c.5 0 .9-.4.9-.9v-3.1c0-.5-.4-.9-.9-.9h-8.6v-3.3h8.6z"/>
  </g>
</svg>
